<svg xmlns="http://www.w3.org/2000/svg" viewBox="0 0 256 256">
  <defs>
    <radialGradient id="bg" cx="50%" cy="38%" r="70%">
      <stop offset="0" stop-color="#7415a5"/>
      <stop offset="1" stop-color="#28003f"/>
    </radialGradient>
    <linearGradient id="gold" x1="0" y1="0" x2="1" y2="1">
      <stop offset="0" stop-color="#fff16b"/>
      <stop offset=".42" stop-color="#ffc21f"/>
      <stop offset="1" stop-color="#e88700"/>
    </linearGradient>
    <linearGradient id="goldDark" x1="0" y1="0" x2="0" y2="1">
      <stop offset="0" stop-color="#ffdc38"/>
      <stop offset="1" stop-color="#bc5e00"/>
    </linearGradient>
    <filter id="glow">
      <feGaussianBlur stdDeviation="4" result="b"/>
      <feMerge><feMergeNode in="b"/><feMergeNode in="SourceGraphic"/></feMerge>
    </filter>
  </defs>
  <circle cx="128" cy="128" r="122" fill="url(#bg)" stroke="#cf42ff" stroke-width="8"/>
  <circle cx="128" cy="128" r="108" fill="none" stroke="#8c2bc3" stroke-width="2"/>
  <g fill="#ffe75c" filter="url(#glow)">
    <path d="M45 57h5v5h-5zM202 65h6v6h-6zM213 157h5v5h-5zM55 184h6v6h-6z"/>
    <path d="m192 37 3 8 8 3-8 3-3 8-3-8-8-3 8-3zM42 119l3 7 7 3-7 3-3 7-3-7-7-3 7-3z"/>
  </g>
  <path d="M52 104h152v38H52z" fill="url(#gold)"/>
  <path d="M63 142h130v72H63z" fill="url(#goldDark)"/>
  <path d="M113 104h30v110h-30z" fill="#fff05c"/>
  <path d="M49 97c0-8 7-15 15-15h128c8 0 15 7 15 15v15H49z" fill="url(#gold)"/>
  <path d="M128 86c-11-31-42-41-50-22-7 18 19 25 50 22Z" fill="url(#gold)" stroke="#ffef61" stroke-width="5"/>
  <path d="M128 86c11-31 42-41 50-22 7 18-19 25-50 22Z" fill="url(#gold)" stroke="#ffef61" stroke-width="5"/>
  <circle cx="128" cy="88" r="15" fill="#fff05c"/>
  <circle cx="190" cy="190" r="30" fill="url(#gold)" stroke="#fff05c" stroke-width="4"/>
  <path d="m190 174 5 11 12 5-12 5-5 12-5-12-12-5 12-5z" fill="#fff9bd"/>
</svg>
